<svg width="102" height="133" viewBox="0 0 102 133" fill="none" xmlns="http://www.w3.org/2000/svg">
<rect x="99.5001" y="130.5" width="97" height="128" rx="17.5" transform="rotate(180 99.5001 130.5)" fill="white" stroke="black" stroke-width="5"/>
<path d="M48.5001 101C48.5001 102.381 49.6194 103.5 51.0001 103.5C52.3808 103.5 53.5001 102.381 53.5001 101L48.5001 101ZM52.7679 29.2322C51.7916 28.2559 50.2087 28.2559 49.2323 29.2322L33.3224 45.1421C32.3461 46.1185 32.3461 47.7014 33.3224 48.6777C34.2988 49.654 35.8817 49.654 36.858 48.6777L51.0001 34.5355L65.1423 48.6777C66.1186 49.654 67.7015 49.654 68.6778 48.6777C69.6541 47.7014 69.6541 46.1184 68.6778 45.1421L52.7679 29.2322ZM53.5001 101L53.5001 31L48.5001 31L48.5001 101L53.5001 101Z" fill="black"/>
</svg>
