<svg width="34" height="46" viewBox="0 0 34 46" fill="none" xmlns="http://www.w3.org/2000/svg">
<path d="M2.46029 45.0858C11.4619 46.7973 20.5133 45.6767 29.5735 45.1572C30.759 45.0891 31.4501 44.2889 31.5776 43.153C32.5003 34.9225 31.6025 26.5326 32.8602 18.3517C33.6458 13.2429 33.7147 8.40258 29.7041 4.63804C22.7498 -1.89044 11.1164 1.26481 2.6398 0.0207194C2.40413 -0.0137689 2.186 -0.00168327 1.97686 0.0311839C1.03816 0.107235 0.137922 0.743797 0.103433 1.95266C-0.289351 15.6969 0.530706 29.421 0.990109 43.1523C1.01649 43.9924 1.57287 44.9175 2.46029 45.0858ZM22.9607 5.49995C24.0204 5.85515 25.0522 6.29923 26.0414 6.87639C28.4174 8.26241 29.2054 10.4309 29.3304 12.8206C29.2351 12.8335 29.1405 12.8423 29.0402 12.8687C26.5728 13.5381 24.1277 13.8547 21.6363 13.5838C22.0507 10.8853 22.5558 8.20066 22.9607 5.49995ZM4.07078 4.13707C8.95354 4.45852 14.2059 3.90302 19.0863 4.60281C18.5933 8.16131 17.851 11.6804 17.3796 15.2431C17.2689 16.0808 18.0698 17.0018 18.8507 17.1759C22.2954 17.9398 25.6807 17.7796 29.0676 16.9892C28.8721 18.3856 28.6275 19.754 28.4945 20.9917C27.773 27.715 28.274 34.5162 27.7353 41.2637C20.1477 41.7704 12.4784 42.628 4.9349 41.4593C4.49481 29.0209 3.827 16.5866 4.07078 4.13707Z" fill="white"/>
</svg>
