<svg width="34" height="46" viewBox="0 0 34 46" fill="none" xmlns="http://www.w3.org/2000/svg">
<path d="M19.8764 20.9331C18.5401 19.9189 16.2933 20.0138 14.7274 19.9708C12.8631 19.9196 13.319 19.0118 13.6982 17.521C14.2838 15.219 16.6072 15.6436 18.4714 15.6981C21.1369 15.7766 21.1285 11.6467 18.4714 11.5683C17.8569 11.5493 17.2499 11.5278 16.6576 11.5246C16.5875 10.849 16.5726 10.1691 16.5717 9.46962C16.57 6.80586 12.4402 6.80586 12.4419 9.46962C12.4426 10.4087 12.4808 11.3413 12.5946 12.2655C11.8191 12.6793 11.1303 13.3112 10.5644 14.2743C9.42292 16.2161 8.52589 19.724 9.75003 21.8129C11.1567 24.2131 14.0088 24.052 16.4297 24.1644C18.7053 24.2701 19.0125 26.4739 19.1232 28.2752C19.1827 29.2498 19.0373 30.2873 18.6532 31.1859C17.6099 33.6217 14.5655 30.2996 15.3105 28.4577C16.3091 25.9873 12.3131 24.9243 11.3277 27.3592C9.84342 31.0307 12.3874 34.2015 15.6145 35.6718C15.6145 36.5201 15.6145 37.3691 15.6145 38.2174C15.6145 40.8811 19.7443 40.8811 19.7443 38.2174C19.7443 37.3799 19.7443 36.5431 19.7443 35.7057C21.5293 34.7169 22.7327 32.4869 23.0911 30.5136C23.7353 26.9595 22.7962 23.1468 19.8764 20.9331Z" fill="#010002"/>
<path d="M32.9664 16.4993C31.8959 9.16224 28.0716 -0.886404 19.1545 0.0625614C19.142 0.0618021 19.1331 0.0584612 19.1214 0.0584612C11.5473 -0.0546736 4.33991 2.55365 2.06932 10.3955C0.125831 17.1064 0.219072 25.3861 1.46553 32.1804C2.70287 38.9237 6.70132 43.4978 13.2479 45.3967C17.8189 46.7215 22.4163 45.8525 26.1157 42.9047C33.3809 37.1181 34.1937 24.9127 32.9664 16.4993ZM24.9916 38.1506C22.9598 40.7574 20.1597 41.988 16.8848 41.8617C11.3104 41.6461 7.44482 38.0912 5.88705 32.9181C4.19792 27.3115 4.73156 20.9837 5.4336 15.2572C5.85486 11.8262 6.4875 8.54873 9.44373 6.37062C12.1661 4.36518 15.8772 4.13967 19.1225 4.18765C19.3413 4.19099 19.5346 4.15789 19.7171 4.10914C25.954 3.17992 28.1775 12.5769 28.8953 16.9836C30.0002 23.7679 29.3684 32.5339 24.9916 38.1506Z" fill="#010002"/>
</svg>
