<svg width="34" height="46" viewBox="0 0 34 46" fill="none" xmlns="http://www.w3.org/2000/svg">
<path d="M22.8249 29.7946C21.2602 29.9552 19.6936 30.1584 18.1248 30.1842C18.2394 26.8714 18.2168 23.5507 18.0426 20.2415C17.9957 19.3471 17.4518 18.4643 16.5274 18.2504C15.3687 17.9826 14.1802 17.8959 12.994 17.914C10.3334 17.9527 10.3294 22.0838 12.994 22.0438C13.3276 22.039 13.6571 22.0422 13.9854 22.0563C14.1091 25.4201 14.0935 28.7951 13.9175 32.1546C13.8539 33.3767 14.9133 34.0922 15.9826 34.2195C18.2685 34.4922 20.5479 34.1599 22.8241 33.9259C25.4481 33.6535 25.4739 29.5213 22.8249 29.7946Z" fill="white"/>
<path d="M32.9657 16.4985C31.8952 9.16207 28.0703 -0.886689 19.154 0.0626023C19.1419 0.0617964 19.1322 0.0585725 19.121 0.0585725C11.5469 -0.0538595 4.34026 2.55424 2.06972 10.3961C0.126137 17.1071 0.219763 25.3857 1.46672 32.1807C2.70482 38.9239 6.7024 43.4982 13.2492 45.3969C17.8199 46.7213 22.4159 45.8535 26.1166 42.9044C33.3802 37.1171 34.1932 24.9122 32.9657 16.4985ZM24.9899 38.1494C22.9588 40.7564 20.159 41.9872 16.8835 41.8607C11.3089 41.6452 7.44416 38.0907 5.88569 32.9169C4.19666 27.3112 4.7294 20.9829 5.43207 15.2562C5.85345 11.8258 6.48627 8.54846 9.44241 6.37035C12.1647 4.36511 15.8756 4.13971 19.1202 4.18726C19.3379 4.19089 19.5323 4.15771 19.7146 4.10895C25.9514 3.18061 28.175 12.5776 28.8938 16.9833C29.9989 23.7668 29.3665 32.534 24.9899 38.1494Z" fill="white"/>
<path d="M15.0027 15.6876C15.8549 15.6876 16.6098 15.3569 17.127 14.7552C17.5778 14.2305 17.8259 13.5359 17.8259 12.7967C17.8259 11.3602 16.8559 9.90585 15.0027 9.90585C14.1501 9.90585 13.3952 10.2362 12.8782 10.8382C12.4273 11.3625 12.1797 12.0583 12.1797 12.7967C12.1797 14.2328 13.1483 15.6876 15.0027 15.6876Z" fill="white"/>
</svg>
