<svg width="4377" height="4377" viewBox="0 0 4377 4377" fill="none" xmlns="http://www.w3.org/2000/svg">
<path d="M2188.5 0L2203.38 2018.45L2568.53 33.2483L2232.68 2023.61L2937.01 131.983L2260.64 2033.79L3282.75 293.203L2286.41 2048.67L3595.24 512.012L2309.21 2067.79L3864.99 781.759L2328.33 2090.59L4083.8 1094.25L2343.21 2116.36L4245.02 1439.99L2353.39 2144.32L4343.75 1808.47L2358.55 2173.62L4377 2188.5L2358.55 2203.38L4343.75 2568.53L2353.39 2232.68L4245.02 2937.01L2343.21 2260.64L4083.8 3282.75L2328.33 2286.41L3864.99 3595.24L2309.21 2309.21L3595.24 3864.99L2286.41 2328.33L3282.75 4083.8L2260.64 2343.21L2937.01 4245.02L2232.68 2353.39L2568.53 4343.75L2203.38 2358.55L2188.5 4377L2173.62 2358.55L1808.47 4343.75L2144.32 2353.39L1439.99 4245.02L2116.36 2343.21L1094.25 4083.8L2090.59 2328.33L781.759 3864.99L2067.79 2309.21L512.012 3595.24L2048.67 2286.41L293.203 3282.75L2033.79 2260.64L131.983 2937.01L2023.61 2232.68L33.2483 2568.53L2018.45 2203.38L0 2188.5L2018.45 2173.62L33.2483 1808.47L2023.61 2144.32L131.983 1439.99L2033.79 2116.36L293.203 1094.25L2048.67 2090.59L512.012 781.759L2067.79 2067.79L781.759 512.012L2090.59 2048.67L1094.25 293.203L2116.36 2033.79L1439.99 131.983L2144.32 2023.61L1808.47 33.2483L2173.62 2018.45L2188.5 0Z" fill="#783C78" fill-opacity="0.5"/>
</svg>
