<svg width="85" height="85" viewBox="0 0 85 85" fill="none" xmlns="http://www.w3.org/2000/svg">
<rect x="2.5" y="2.5" width="80" height="80" rx="17.5" fill="white" stroke="black" stroke-width="5"/>
<g clip-path="url(#clip0_216_7)">
<path d="M46.889 56.5651C45.0262 60.0566 45.1906 64.2196 49.3491 65.6661C52.3431 66.7073 55.8668 65.1598 58.0598 63.1551C59.1223 62.1835 59.8127 61.0379 60.1877 59.81C60.4296 59.4769 60.5805 59.0501 60.5805 58.526C60.5805 48.5446 60.5805 38.5642 60.5805 28.5827C61.1878 27.2656 60.5483 25.3208 58.65 25.3039C49.6937 25.2262 40.7937 24.0778 31.8382 24.0002C30.3452 23.9867 29.6335 25.1798 29.689 26.336C29.4792 26.6575 29.346 27.0531 29.346 27.5361C29.346 33.9136 29.346 40.2893 29.346 46.6666C25.6759 46.7479 22.3158 47.3837 20.3352 51.0957C18.4735 54.5872 18.6368 58.7501 22.7953 60.1966C25.7894 61.2378 29.3139 59.6903 31.5061 57.6856C33.8769 55.5202 34.4037 52.4905 33.6786 49.6061C33.7562 49.3784 33.8107 49.131 33.8107 48.8472C33.8107 42.067 33.8107 35.2878 33.8107 28.5084C41.257 28.6941 48.6712 29.4942 56.1157 29.7111C56.1157 37.1843 56.1157 44.6565 56.1157 52.1295C52.3618 52.1924 48.9088 52.7781 46.889 56.5651ZM51.0813 61.4754C50.7982 61.4682 50.1089 61.1227 50.1455 61.2191C49.8428 60.428 50.5822 59.1225 50.9385 58.4536C51.9519 56.5535 54.0763 56.473 56.0506 56.5392C56.5123 59.2894 53.9102 61.5424 51.0813 61.4754ZM24.5285 56.0061C24.2455 55.9989 23.5561 55.6535 23.5927 55.7498C23.29 54.9587 24.0294 53.6532 24.3857 52.9843C25.3991 51.0842 27.5254 51.0038 29.5005 51.0699C29.9604 53.8201 27.3566 56.0731 24.5285 56.0061Z" fill="#010002"/>
</g>
<defs>
<clipPath id="clip0_216_7">
<rect width="42" height="42" fill="white" transform="translate(19 24)"/>
</clipPath>
</defs>
</svg>
