<svg width="102" height="133" viewBox="0 0 102 133" fill="none" xmlns="http://www.w3.org/2000/svg">
<rect x="2.5" y="2.5" width="97" height="128" rx="17.5" fill="white" stroke="black" stroke-width="5"/>
<path d="M53.5 32C53.5 30.6193 52.3807 29.5 51 29.5C49.6193 29.5 48.5 30.6193 48.5 32L53.5 32ZM49.2322 103.768C50.2085 104.744 51.7915 104.744 52.7678 103.768L68.6777 87.8579C69.654 86.8815 69.654 85.2986 68.6777 84.3223C67.7014 83.346 66.1184 83.346 65.1421 84.3223L51 98.4645L36.8579 84.3223C35.8816 83.346 34.2986 83.346 33.3223 84.3223C32.346 85.2986 32.346 86.8816 33.3223 87.8579L49.2322 103.768ZM48.5 32L48.5 102L53.5 102L53.5 32L48.5 32Z" fill="black"/>
</svg>
