<svg width="85" height="85" viewBox="0 0 85 85" fill="none" xmlns="http://www.w3.org/2000/svg">
<rect x="2.48603" y="2.72346" width="79.5531" height="79.5531" rx="17.4022" fill="white" stroke="black" stroke-width="4.97207"/>
<path d="M33.9954 34.5888C34.122 34.6204 34.265 35.2091 34.2987 35.3437C34.3809 35.6727 34.4733 36.0698 34.8084 36.2374C35.0535 36.3599 35.314 36.4492 35.5633 36.5761C35.9601 36.7781 36.382 36.9697 36.8377 36.9697C36.9853 36.9697 37.3385 37.0423 37.2151 36.7955C37.0132 36.3917 36.4906 36.089 36.1569 35.8083C35.761 35.4752 35.2969 35.2007 34.8084 35.0243C34.5557 34.9331 34.3153 34.812 34.0567 34.7372C33.9083 34.6942 33.7004 34.6911 33.647 34.5307" stroke="black" stroke-width="1.98883" stroke-linecap="round"/>
<path d="M47.1194 36.9697C47.8278 36.7336 48.561 36.5684 49.2068 36.1793C49.7731 35.838 49.9034 35.5134 50.1392 34.9501C50.1853 34.84 50.7645 34.1119 50.8489 34.4403C50.9582 34.8653 50.8227 35.319 50.6876 35.7244C50.5469 36.1465 50.4386 36.6927 49.9649 36.8535C49.0644 37.1594 47.9507 37.3762 47.0033 37.3762" stroke="black" stroke-width="1.98883" stroke-linecap="round"/>
<path d="M29.1755 25.1811C29.2063 25.4583 29.4671 25.7471 29.6401 25.9489C30.0389 26.4142 30.4279 26.9352 30.8854 27.3426C31.7476 28.1103 32.7848 28.6222 33.647 29.3751C35.0559 30.6054 36.7503 31.4098 38.3186 32.4078C38.6667 32.6293 39.0727 32.9296 39.3671 33.224C39.6715 33.5284 39.7364 33.9906 40.0349 34.2725C40.1134 34.3466 40.5776 34.0888 40.6737 34.0531C40.9661 33.9445 41.2505 33.7312 41.5577 33.6724C42.0952 33.5695 42.7095 33.7031 43.2417 33.7757C43.7572 33.846 44.229 33.8761 44.6774 34.1563C44.9238 34.3104 45.1224 34.4308 45.3968 34.5306C45.453 34.551 45.3436 34.5907 45.4065 34.4144C45.5879 33.9066 45.8645 33.6306 46.2453 33.2498C46.7512 32.7439 47.2378 32.3043 47.8165 31.8883C48.1703 31.634 48.548 31.3896 48.9198 31.1624C49.3906 30.8748 49.8811 30.6979 50.3716 30.4527C50.8586 30.2092 51.3111 29.9326 51.8105 29.7107C52.1994 29.5378 52.5514 29.321 52.8945 29.0719C53.3038 28.7747 53.7743 28.5606 54.1785 28.2589C54.5805 27.9588 54.9216 27.5416 55.2754 27.1878C55.8702 26.593 56.3487 25.9841 56.8724 25.3295C57.0606 25.0943 57.2451 24.8795 57.3692 24.6036C57.4618 24.3979 57.5144 24.2265 57.5144 24.5423" stroke="black" stroke-width="1.98883" stroke-linecap="round"/>
<path d="M37.015 44.8093C37.1621 44.8093 37.2443 44.9129 37.3763 44.9706C37.8091 45.1599 38.2536 45.3492 38.6991 45.5062C39.0585 45.6328 39.5221 45.7808 39.7734 46.0901C40.3008 46.7392 40.6903 47.4285 41.1381 48.1194C41.4233 48.5595 41.6958 49.0551 41.8027 49.5744C41.8988 50.041 42.0242 50.5108 42.1576 50.9681C42.2582 51.3133 42.4682 51.6465 42.5447 51.9908C42.5875 52.1834 42.6945 52.3956 42.706 52.5909C42.7071 52.6095 42.8283 52.2631 42.8512 52.1715C42.9603 51.7352 42.9728 51.2807 43.1157 50.852C43.2341 50.4968 43.3969 50.1571 43.519 49.8035C43.6921 49.3024 43.9138 48.8282 44.1126 48.3388C44.2287 48.0531 44.325 47.7579 44.4611 47.4806C44.5767 47.2451 44.6118 46.9842 44.7385 46.7579C44.9561 46.3695 45.3016 45.8443 45.6677 45.5772C46.1121 45.2528 46.7931 45.1033 47.313 44.9577C47.6948 44.8508 47.4141 44.703 47.1775 44.519C46.8838 44.2905 46.561 44.1997 46.2613 43.9963C45.6292 43.5674 45.5515 42.6438 45.5515 41.9509C45.5515 41.1179 45.5454 40.292 45.4902 39.4635C45.454 38.92 45.0714 38.7304 44.8676 38.2602C44.799 38.1019 44.5604 37.7934 44.4191 37.6956C43.9615 37.3788 43.6055 37.2802 43.0415 37.26C42.5045 37.2409 41.9912 37.2115 41.5446 37.6085C41.2678 37.8545 41.0228 38.206 40.8477 38.5376C40.6254 38.9589 40.2946 39.3446 40.1218 39.7861C39.7474 40.7431 39.5702 41.5945 39.5702 42.6349C39.5702 42.9317 39.6863 43.2136 39.6863 43.5027C39.6863 43.7274 39.337 43.8082 39.1508 43.8802C38.8194 44.0082 38.4584 43.9788 38.1184 44.0544C37.6648 44.1552 37.4599 44.414 37.0731 44.6351" stroke="black" stroke-width="1.98883" stroke-linecap="round"/>
<path d="M29.5819 30.2912C30.0587 30.787 30.508 31.3074 30.9756 31.8011C31.4403 32.2916 30.9292 32.9376 30.9176 33.5432C30.9074 34.0731 30.8595 34.6068 30.8595 35.1434C30.8595 35.7879 30.9816 36.6621 31.395 37.1694C32.2009 38.1585 33.1788 38.8463 34.2244 39.5536C34.9463 40.0419 35.8157 40.5404 36.6699 40.6828C36.8604 40.7145 36.5947 40.8944 36.5214 41.0409C36.3496 41.3846 36.3037 41.9199 36.0278 42.1958C35.5496 42.6741 35.0091 43.1049 34.4728 43.5315C34.1791 43.7651 33.8301 43.9076 33.5179 44.1122C33.2827 44.2662 33.0929 44.4377 32.892 44.6348C32.8082 44.717 32.4617 44.9067 32.4306 45.0155C32.3543 45.2826 33.0977 45.6031 33.2501 45.6834C33.9342 46.0434 34.6241 46.3966 35.2955 46.7803C35.7762 47.055 36.3011 47.2403 36.7795 47.5094C37.087 47.6823 37.3594 48.0311 37.5925 48.2933C37.9264 48.6689 38.2218 49.137 38.5217 49.5419C38.8949 50.0457 39.1453 50.655 39.396 51.226C39.9278 52.4374 40.5175 53.6134 40.9768 54.8554C41.1703 55.3786 41.3433 55.9015 41.5317 56.4233C41.7082 56.912 41.9239 57.3644 42.0221 57.8751C42.1004 58.2822 42.3018 58.7027 42.4157 59.1075C42.5693 59.6537 42.8147 60.2817 42.877 60.8432C42.9257 61.2811 42.9383 61.7787 42.9383 62.2176C42.9383 62.7318 43.0665 61.1971 43.1416 60.6884C43.3243 59.4501 43.8322 58.356 44.1256 57.1557C44.234 56.7122 44.3877 56.3642 44.5643 55.9459C44.9112 55.1244 45.3139 54.3177 45.7129 53.5198C45.9267 53.0921 46.0859 52.6052 46.2484 52.1583C46.4115 51.7097 46.5872 51.2748 46.7711 50.8356C47.0775 50.1035 47.793 49.3065 48.3971 48.8031C48.7696 48.4926 49.0672 48.1032 49.4875 47.8417C49.8815 47.5965 50.251 47.2502 50.6618 47.0448C51.2559 46.7478 51.8572 46.3409 52.3749 45.9382C52.6411 45.7312 52.9724 45.5757 53.1847 45.3027C53.348 45.0927 53.0938 45.0283 52.9847 44.9252C52.2157 44.1989 51.1495 43.8816 50.4425 43.0669C50.1321 42.7094 49.7475 42.4219 49.352 42.1958C48.8788 41.9255 48.6794 41.0934 48.6326 40.6021C48.5977 40.2362 48.985 40.3734 49.2391 40.3343C49.6302 40.2742 49.9698 40.1348 50.3457 40.0182C51.1285 39.7752 52.0585 39.541 52.7266 39.06C53.2325 38.6958 53.5076 38.2175 53.7977 37.6695C54.0783 37.1395 54.0753 36.63 54.159 36.0532C54.2638 35.3314 54.2464 34.4745 53.9719 33.7884C53.8799 33.5583 53.7831 33.3541 53.6686 33.1367C53.4887 32.7947 53.4593 32.8138 53.5654 32.4689C53.7174 31.9749 54.4149 31.6957 54.843 31.4817C55.3933 31.2065 55.7608 30.887 56.1206 30.4073" stroke="black" stroke-width="1.98883" stroke-linecap="round"/>
<path d="M32.1951 26.2263C32.6936 26.2263 33.1381 25.4574 33.4404 25.1552C33.7351 24.8605 34.1183 24.5933 34.4469 24.3357C35.2143 23.7343 36.1332 23.8609 37.0118 23.6098C38.3452 23.2289 39.6648 22.8106 41.009 22.4645C41.5345 22.3293 42.1228 22.2511 42.6608 22.1742C43.1291 22.1073 43.5989 22.0882 44.0675 22.1613C45.8105 22.4331 47.5712 22.6537 49.21 23.3517C49.8556 23.6267 50.5511 23.799 51.1231 24.2196C51.3788 24.4076 51.6599 24.5901 51.9361 24.7455C52.3823 24.9964 52.599 25.5281 53.0427 25.7746C53.3494 25.945 53.2549 26.3156 53.4492 26.5747" stroke="black" stroke-width="3.97765" stroke-linecap="round"/>
<path d="M55.7141 32.3819C55.7141 33.0313 56.1635 33.6408 56.1787 34.3112C56.1953 35.0435 56.4691 35.7578 56.4691 36.5018C56.4691 37.3275 56.5852 38.1503 56.5852 38.9698C56.5852 39.7844 56.5493 40.6954 56.7594 41.4863C56.94 42.1663 57.1402 42.9402 57.1659 43.6478C57.1943 44.4293 57.408 45.1951 57.4595 45.9674C57.4825 46.312 57.6409 46.6314 57.6918 46.9708C57.8193 47.8205 58.2263 48.6097 58.5564 49.3936C58.9044 50.2202 59.0194 51.1166 59.2307 51.9811C59.3975 52.6637 59.6627 53.3652 59.8953 54.0297C60.2088 54.9253 60.3635 55.8629 60.6954 56.759C60.7099 56.7982 60.7986 56.83 60.7986 56.83C60.7986 56.83 60.6396 56.796 60.5792 56.7461C60.295 56.5113 60.0855 56.1839 59.8372 55.9138C59.5005 55.5475 59.1088 55.2312 58.7048 54.9427C58.0227 54.4554 57.388 53.9113 56.7401 53.3812C56.5719 53.2436 56.269 52.9973 56.0335 52.9973C55.7741 52.9973 55.6978 53.3268 55.5948 53.5328C55.1585 54.4053 54.7202 55.328 54.1462 56.1203C53.7654 56.6459 53.4453 57.0904 53.1719 57.6882C53.1363 57.766 52.9722 58.3625 52.8106 58.2689C52.6449 58.173 52.5084 57.8898 52.3912 57.7463C52.0764 57.3607 51.7561 56.975 51.4168 56.6106C50.909 56.0651 50.3438 55.6289 49.6812 55.2976C49.5884 55.2512 49.3807 55.2266 49.294 55.2976C48.87 55.6445 48.5554 56.1107 48.2229 56.5429C47.3981 57.6151 46.5656 58.6943 45.6807 59.7175C45.4343 60.0024 45.1745 60.2694 44.9225 60.5466C44.7704 60.714 44.7512 60.97 44.6677 61.1725C44.3328 61.9838 43.8772 62.8017 43.2546 63.4243C43.0526 63.6264 42.9744 64.0485 42.619 63.9696C42.4963 63.9423 42.3881 63.7082 42.3254 63.6179C42.0759 63.2586 41.8914 62.8611 41.6802 62.4791C41.1179 61.4622 40.5167 60.4726 39.9219 59.4755C39.4887 58.7492 38.9709 57.975 38.6766 57.1817C38.4723 56.6309 38.4706 55.9488 38.1056 55.4621C37.9003 55.1884 37.1731 54.894 36.8409 55.0556C36.3774 55.2811 36.0542 55.9452 35.7956 56.3525C35.3789 57.0091 34.8369 57.6439 34.2019 58.1011C34.1299 58.153 33.8011 58.458 33.7309 58.3495C33.3102 57.6995 32.9958 56.918 32.6824 56.2106C32.2758 55.2928 31.6572 54.5861 30.9434 53.8974C30.6523 53.6165 30.3191 53.3795 30.0337 53.0941C29.9509 53.0113 29.9309 52.9105 29.8014 52.9521C29.1592 53.1585 28.7115 53.7754 28.2915 54.262C27.6326 55.0253 26.8304 55.6363 25.9558 56.1332C25.6429 56.3108 25.0981 56.4225 24.9234 56.7719C24.6704 57.2779 25.2487 55.6882 25.4299 55.1524C25.718 54.3004 26.0899 53.4895 26.3913 52.6456C26.6651 51.8791 26.764 51.0632 27.0333 50.3002C27.5298 48.8935 28.0739 47.585 28.3044 46.0997C28.4212 45.3473 28.4786 44.6284 28.4786 43.8672C28.4786 43.0735 28.3625 42.294 28.3625 41.4992C28.3625 39.9196 28.3625 38.3411 28.3625 36.7663C28.3625 35.8966 28.3044 35.0232 28.3044 34.1499C28.3044 33.2462 28.4882 32.4695 28.769 31.627" stroke="black" stroke-width="3.97765" stroke-linecap="round"/>
</svg>
