<svg width="164" height="230" viewBox="0 0 164 230" fill="none" xmlns="http://www.w3.org/2000/svg">
<path d="M96.2915 104.369C89.6286 99.3124 78.4267 99.7856 70.619 99.5713C61.3243 99.3162 63.5972 94.79 65.4878 87.3571C68.4074 75.8795 79.9917 77.9965 89.2864 78.2683C102.576 78.6597 102.534 58.0684 89.2864 57.6777C86.2222 57.5831 83.1959 57.4756 80.2431 57.4597C79.8933 54.0911 79.8191 50.7014 79.8145 47.214C79.8062 33.9329 59.2156 33.9329 59.224 47.214C59.2278 51.8962 59.4178 56.5458 59.9857 61.1538C56.1189 63.217 52.6845 66.3675 49.8634 71.1693C44.1719 80.8509 39.6995 98.341 45.8028 108.756C52.8162 120.723 67.0362 119.92 79.1066 120.48C90.4524 121.007 91.9841 131.995 92.5361 140.976C92.8329 145.835 92.1075 151.008 90.1927 155.488C84.9911 167.633 69.8119 151.069 73.5264 141.886C78.5054 129.569 58.5819 124.269 53.6688 136.409C46.2685 154.714 58.9521 170.523 75.0422 177.854C75.0422 182.083 75.0422 186.317 75.0422 190.546C75.0422 203.827 95.6328 203.827 95.6328 190.546C95.6328 186.37 95.6328 182.199 95.6328 178.023C104.532 173.093 110.533 161.974 112.32 152.136C115.531 134.416 110.849 115.406 96.2915 104.369Z" fill="black"/>
<path d="M161.556 82.2631C156.219 45.6816 137.152 -4.41948 92.692 0.311922C92.63 0.308136 92.5853 0.291479 92.527 0.291479C54.7636 -0.272594 18.8287 12.7321 7.50791 51.8304C-2.18204 85.2901 -1.71715 126.571 4.4975 160.447C10.6667 194.068 30.6024 216.874 63.2429 226.341C86.033 232.946 108.955 228.614 127.4 213.916C163.623 185.065 167.675 124.211 161.556 82.2631ZM121.795 190.213C111.665 203.21 97.7036 209.346 81.3758 208.716C53.5825 207.641 34.3093 189.917 26.5425 164.125C18.1208 136.171 20.7814 104.622 24.2817 76.0704C26.382 58.9634 29.5363 42.6227 44.2756 31.763C57.849 21.7641 76.3521 20.6398 92.5323 20.879C93.6233 20.8957 94.5872 20.7306 95.4973 20.4876C126.593 15.8546 137.679 62.7067 141.258 84.6776C146.767 118.503 143.617 162.209 121.795 190.213Z" fill="black"/>
</svg>
