<svg width="229" height="230" viewBox="0 0 229 230" fill="none" xmlns="http://www.w3.org/2000/svg">
<path d="M9.81951 115.905C23.1817 116.611 34.9942 120.529 47.3683 125.281C63.4956 131.479 64.4874 128.79 65.398 143.062C67.0156 168.41 53.9029 193.949 51.9635 219.26C51.3171 227.677 63.6078 232.999 69.0945 226.356C85.0211 207.066 101.666 188.41 118.424 169.85C133.905 192.644 147.203 221.307 175.733 227.934C180.887 229.13 186.807 226.409 188.075 220.926C195.027 190.906 177.427 163.801 168.235 135.865C187.815 132.783 206.054 123.732 223.601 114.54C231.168 110.574 229.574 98.0632 221.205 96.2006C199.491 91.3559 174.898 85.1467 157.595 70.4518C141.062 56.4158 137.418 28.2745 130.429 8.45891C130.144 2.22169 123.192 -1.17439 117.4 0.370893C113.286 1.27784 109.875 4.32413 109.903 8.77549C103.982 27.0222 98.556 59.0164 82.4043 69.5721C73.8226 75.1836 61.7009 76.9893 51.9916 79.9117C36.8037 84.4877 22.4497 91.6437 7.14958 96.1999C-3.94783 99.5 -1.40704 115.311 9.81951 115.905ZM61.6736 97.951C73.0529 94.5232 89.0038 91.9345 97.8578 83.1764C108.523 72.6243 114.973 57.7729 120.13 42.6131C124.634 56.7258 130.137 70.513 139.95 80.9647C152.891 94.7439 171.133 103.044 189.749 108.792C178.763 113.42 167.348 116.776 155.319 116.908C148.556 116.984 144.229 123.234 145.641 129.612C150.827 153.013 169.098 178.825 169.804 203.751C150.598 191.738 139.404 163.553 126.287 146.944C123.007 142.79 115.457 143.227 112.098 146.944C100.824 159.403 89.5927 171.882 78.5226 184.513C83.3393 164.725 88.1478 145.033 83.2426 124.41C81.4243 116.772 71.8832 113.814 65.6659 111.245C58.9586 108.472 52.3362 105.811 45.6569 103.486C50.9488 101.491 56.2629 99.5804 61.6736 97.951Z" fill="black"/>
</svg>
