<svg width="229" height="202" viewBox="0 0 229 202" fill="none" xmlns="http://www.w3.org/2000/svg">
<path d="M135.971 6.53961C120.267 -1.84927 102.496 0.452635 85.2841 0.676608C82.5903 0.713313 80.4811 1.63392 78.8992 3.0272C76.6759 4.65269 75.1224 7.23999 75.1425 10.8618C75.4103 56.3425 80.5214 101.64 76.6431 147.04C75.2231 163.65 75.0247 181.092 87.1942 193.726C98.4717 205.431 120.482 200.759 134.538 200.392C138.85 200.281 143.377 197.393 144.319 192.915C154.306 145.315 148.46 96.2292 146.241 48.1282C145.67 35.6786 149.803 13.9262 135.971 6.53961ZM126.089 180.559C112.239 181.655 97.7333 182.58 96.3826 164.156C95.34 149.892 98.4433 135.433 98.861 121.181C99.8507 87.6538 96.3782 53.9799 95.5995 20.4124C107.586 19.7113 124.9 19.4551 125.505 26.1204C126.933 41.7985 126.401 57.9605 127.294 73.724C129.305 109.113 132.194 145.427 126.089 180.559Z" fill="black"/>
<path d="M10.3594 198.877C24.553 202.78 42.2117 202.266 56.6119 200.14C76.9757 197.129 65.8243 158.236 65.6497 145.915C65.3455 123.991 68.1445 100.858 63.3496 79.2888C58.0924 55.6338 28.1635 65.5381 11.3364 66.1246C6.97188 66.2752 4.09974 68.6752 2.65136 71.7591C1.88839 73.0468 1.3529 74.5502 1.19478 76.3097C-2.19272 113.752 2.66702 151.549 2.91091 189.057C2.94447 193.585 5.98665 197.671 10.3594 198.877ZM20.862 85.8777C24.148 85.6005 27.4334 85.2994 30.7276 85.0672C41.4249 84.3136 44.0859 81.9705 45.1935 93.725C46.5926 108.588 45.283 123.948 45.3233 138.863C45.3479 148.911 44.4067 160.004 46.2361 169.905C46.6456 172.089 47.0394 174.277 47.425 176.465C47.7904 178.51 48.1879 179.874 48.5608 180.791C48.4027 180.779 48.2446 180.767 48.0582 180.783C40.4523 181.39 31.2683 181.712 23.0293 180.641C22.3021 149.098 19.1175 117.384 20.862 85.8777Z" fill="black"/>
<path d="M164.013 30.6875C159.085 31.653 156.874 35.149 156.72 38.9423C156.651 39.4516 156.566 39.9528 156.57 40.5071C156.635 67.01 157.292 93.501 158.135 119.988C158.906 144.189 157.507 168.781 160.938 192.774C161.62 197.55 166.626 199.758 170.719 200.251C186.799 202.194 202.705 199.778 218.829 200.251C223.997 200.401 229.445 195.492 228.971 190.065C224.89 143.317 231.166 95.7378 226.683 49.3357C223.985 21.4551 182.227 27.1144 164.013 30.6875ZM206.262 88.4485C206.006 118.993 205.804 149.469 207.914 179.936C198.49 180.209 189.111 180.865 179.7 180.531C177.4 158.269 178.893 135.025 178.183 112.767C177.506 91.5482 177.084 70.3172 176.942 49.0862C184.844 48.027 192.941 47.7746 200.775 48.9312C211.508 50.5207 206.323 81.2612 206.262 88.4485Z" fill="black"/>
</svg>
