<svg width="1212" height="271" viewBox="0 0 1212 271" fill="none" xmlns="http://www.w3.org/2000/svg">
<path d="M247 1C245.868 43.2829 245.775 85.4154 244.362 127.65C243.376 157.123 244.694 185.942 244.89 215.355C245.011 233.676 244.89 251.812 244.89 270" stroke="white" stroke-width="2" stroke-linecap="round"/>
<path d="M1 54.0426C11.7218 53.4525 23.5664 53.7314 34.5001 53.751C54.1449 53.7863 73.6241 54.5945 93.2935 54.6257C140.844 54.701 188.339 54.9172 235.904 54.9172C283.059 54.9172 330.554 55.324 377.574 54.3341C439.556 53.0293 502.826 53.751 564.986 53.751C638.618 53.751 712.246 52.8764 785.898 52.8764C852.34 52.8764 918.729 53.5652 985.15 52.8116C1028.82 52.3161 1072.77 52.0791 1116.46 52.0017C1137.13 51.9651 1157.6 52.5238 1178.21 52.8116C1188.13 52.95 1197.93 52.8101 1207.81 52.6496C1211.26 52.5936 1211.37 52.7574 1210.64 53.4595" stroke="white" stroke-width="2" stroke-linecap="round"/>
<path d="M1 130C3.19444 128.422 21.3269 128.511 26.0337 128.492C45.2502 128.416 64.4854 128.492 83.7029 128.492C145.804 128.492 207.844 128.115 269.948 128.115C303.544 128.115 337.143 128.154 370.738 128.115C411.8 128.067 452.636 126.42 493.679 126.251C539.765 126.061 585.489 126.562 631.56 125.853C676.621 125.159 721.722 125.836 766.755 124.91C836.584 123.476 906.874 124.379 976.789 123.507C998.498 123.236 1019.68 122.773 1041.41 123.13C1061.99 123.468 1082.9 123.279 1103.33 124.156C1117.12 124.748 1131.3 124.948 1145.21 124.701C1159.59 124.445 1172.03 125.527 1186.23 126.146C1192.8 126.432 1204.82 126.863 1210.61 125.685C1213.39 125.12 1200.39 125.786 1198.29 125.853" stroke="white" stroke-width="2" stroke-linecap="round"/>
<path d="M1 202.99C51.6253 202.99 102.179 203.106 152.738 202.534C188.774 202.127 224.741 201.384 260.787 201.065C301.142 200.708 341.495 200.585 381.839 200.141C416.971 199.753 452.024 199.973 487.158 199.748C521.349 199.529 555.538 198.949 589.682 198.545C629.222 198.076 668.765 197.416 708.329 197.063C757.788 196.622 807.566 196.607 857.076 196.607C920.44 196.607 983.925 195.409 1047.17 196.379C1078.06 196.853 1109.7 196.341 1140.2 197.633C1147.33 197.935 1153.42 198.214 1160.23 198.557C1169.56 199.029 1180.05 199.081 1189.68 199.115C1193.1 199.126 1209.21 199.813 1211 199.115" stroke="white" stroke-width="2" stroke-linecap="round"/>
</svg>
