<svg width="85" height="85" viewBox="0 0 85 85" fill="none" xmlns="http://www.w3.org/2000/svg">
<rect x="2.75422" y="2.72346" width="79.5531" height="79.5531" rx="17.4022" fill="white" stroke="black" stroke-width="4.97207"/>
<path d="M21.1509 41.1414C21.9238 40.025 23.3718 39.4953 24.5768 39.0416C25.9773 38.5144 27.4644 38.2104 28.8961 37.7753C30.1969 37.38 31.4672 36.929 32.7549 36.4998C34.2046 36.0166 35.6398 35.3997 37.065 34.8421C38.6488 34.2223 40.3181 33.8534 41.9139 33.2672C48.9833 30.6703 56.0084 27.9323 62.9071 24.9142C63.0484 24.8523 64.9082 24.0839 64.9148 24.1037C65.0526 24.5173 64.7921 25.107 64.6661 25.4851C64.3766 26.3536 64.0472 27.1526 63.6254 27.9671C62.883 29.4008 62.1365 30.8087 61.8664 32.42C61.5027 34.5892 61.2507 36.7512 61.102 38.9449C60.9778 40.7765 60.593 42.6264 60.2087 44.42C59.9353 45.6959 59.4826 46.9295 59.3614 48.2328C59.2515 49.4138 58.8433 50.5861 58.6154 51.7508C58.382 52.9439 58.1813 54.1555 58.0352 55.361C57.8982 56.491 57.7499 57.6247 57.5793 58.7501C57.4904 59.3371 57.5632 59.994 57.3905 60.5552C57.3616 60.6492 57.4194 60.9661 57.2386 60.8131C56.6207 60.2903 56.0001 59.7979 55.3368 59.3303C53.422 57.9805 51.4733 56.6533 49.3966 55.5636C48.8598 55.2819 48.2535 55.1734 47.7159 54.8959C47.2736 54.6676 46.8719 54.3953 46.4496 54.1361C46.2212 53.996 45.4864 53.411 45.3076 53.671C45.0663 54.022 44.7797 54.325 44.5064 54.6519C44.0102 55.245 43.6066 55.8934 43.1341 56.503C42.5009 57.3201 41.5834 57.8177 40.9146 58.5935C40.675 58.8715 39.8301 60.295 39.4503 60.1684C38.9944 60.0164 38.4858 59.1477 38.2254 58.7962C36.7732 56.8356 35.3984 54.9755 34.2653 52.8007C33.5661 51.4588 33.0322 50.0357 32.7181 48.5551C32.6228 48.1058 32.6374 47.6347 32.5063 47.1921C32.3794 46.764 32.2567 46.7038 31.9077 46.4093C30.5718 45.2822 28.9917 44.3078 27.3627 43.6648C26.734 43.4167 26.1757 43.0168 25.5623 42.7347C24.8652 42.414 24.0814 42.2405 23.4072 41.8874C23.0037 41.676 22.5757 41.4817 22.187 41.2657C22.0398 41.184 21.9835 41.1654 21.814 41.123C21.6347 41.0782 20.9825 40.9762 21.3995 40.8928" stroke="black" stroke-width="3.97765" stroke-linecap="round"/>
<path d="M36.2232 43.9071C36.6205 43.7879 37.0155 43.1357 37.4308 42.919C38.2103 42.5123 38.9587 42.0291 39.712 41.5772C41.1623 40.707 42.6872 40.0047 44.1218 39.0764C47.1152 37.1396 50.4899 35.9568 53.6796 34.3799C55.3849 33.5368 57.213 32.7831 58.7298 31.6352C59.4358 31.1009 58.3457 32.2043 58.2053 32.3305C57.2799 33.1622 56.2536 33.907 55.2776 34.6788C53.8255 35.8269 52.4047 36.9995 50.9592 38.1493C49.9703 38.9359 49.1133 39.8322 48.1291 40.6195C47.2002 41.3627 46.4916 42.3004 45.5552 43.0288C44.9786 43.4773 44.3302 43.9524 43.7986 44.4561C43.5122 44.7274 43.1007 44.8686 42.7861 45.1148C42.1329 45.626 41.5519 46.2905 40.8587 46.7372C40.2915 47.1028 40.6147 47.5972 40.6147 48.195C40.6147 49.4123 40.3951 50.6033 40.3951 51.818C40.3951 52.0431 40.5099 53.2195 40.1756 53.2391C39.7434 53.2646 39.569 52.6616 39.3826 52.3608C38.8468 51.4962 38.4228 50.5727 38.0896 49.61C37.4283 47.6997 36.1482 45.8329 35.8938 43.7973" stroke="black" stroke-width="1.98883" stroke-linecap="round"/>
</svg>
