<svg width="86" height="85" viewBox="0 0 86 85" fill="none" xmlns="http://www.w3.org/2000/svg">
<rect x="3.03638" y="2.5" width="80" height="80" rx="17.5" fill="white" stroke="black" stroke-width="5"/>
<path d="M24.5364 24.7626C27.413 24.7626 30.4574 25.0928 33.2656 24.3907C34.743 24.0214 36.0923 23.9615 37.6973 24.0188C38.2308 24.0379 38.0462 24.7058 38.1209 25.0415C38.274 25.7306 38.7038 26.2005 39.1332 26.7254C40.07 27.8704 40.839 29.1636 41.8295 30.2997C42.8289 31.4461 43.7008 32.7044 44.3914 34.06C46.7287 38.648 48.2372 43.6715 51.1268 48.006C52.6329 50.2652 54.8309 52.1015 56.5296 54.2249C57.574 55.5304 58.7125 57.4246 60.0936 58.4191C60.5271 58.7312 60.8752 59.242 61.261 59.6277C61.7564 60.1232 61.7271 59.9887 61.075 60.2786C59.9597 60.7742 58.4772 61.0223 57.2631 61.0223C56.342 61.0223 55.3927 60.7653 54.4739 60.6504C53.6679 60.5497 52.5539 60.673 51.788 60.4542C51.623 60.407 51.4252 59.8588 51.3025 59.7207C50.8676 59.2315 50.4672 58.7018 50.0112 58.2331C49.0468 57.242 48.0441 56.2881 47.0773 55.2993C42.4318 50.5482 38.107 45.3806 34.7635 39.5971C33.9554 38.1993 32.9938 36.8194 31.9846 35.5579C30.9306 34.2405 30.2265 32.6514 29.2677 31.2708C28.1825 29.7081 26.8171 28.0717 26.2099 26.2502" stroke="black" stroke-width="4" stroke-linecap="round"/>
<path d="M59.8664 24.7625C59.8089 25.3373 59.2949 25.6763 58.9366 26.0744C58.2051 26.8872 57.6216 27.8543 56.8499 28.626C55.7382 29.7377 54.3784 30.6353 53.1103 31.5495C52.1815 32.2191 51.5808 33.2 50.7549 33.9668C50.0536 34.6181 49.6089 35.5777 48.8955 36.2912C48.4834 36.7032 48.032 37.2743 47.7798 37.7788" stroke="black" stroke-width="4" stroke-linecap="round"/>
<path d="M37.9245 48.006C34.7485 51.182 31.8946 54.6084 28.813 57.8612C28.333 58.3679 28.104 59.128 27.6044 59.6277C26.9839 60.2482 26.4646 60.9534 25.8379 61.5801" stroke="black" stroke-width="4" stroke-linecap="round"/>
</svg>
